<?xml version="1.0" standalone="no"?>
<!DOCTYPE svg PUBLIC "-//W3C//DTD SVG 20010904//EN"
 "http://www.w3.org/TR/2001/REC-SVG-20010904/DTD/svg10.dtd">
<svg version="1.0" xmlns="http://www.w3.org/2000/svg"
 width="414.000000pt" height="414.000000pt" viewBox="0 0 414.000000 414.000000"
 preserveAspectRatio="xMidYMid meet">

<g transform="translate(0.000000,414.000000) scale(0.100000,-0.100000)"
fill="#000000" stroke="none">
<path d="M660 4115 c-309 -63 -543 -285 -632 -600 l-23 -80 0 -1355 c0 -1284
1 -1359 19 -1435 71 -308 300 -543 597 -615 82 -19 114 -20 1450 -20 1551 0
1433 -6 1614 85 235 118 398 344 435 601 8 56 10 462 8 1424 -3 1263 -5 1349
-22 1405 -73 244 -230 429 -448 529 -164 76 -35 70 -1563 72 -1102 2 -1383 0
-1435 -11z m1550 -415 c65 -18 144 -73 177 -123 43 -64 56 -117 51 -198 -6
-75 -43 -154 -91 -195 -80 -67 -201 -101 -325 -90 -202 18 -325 136 -325 311
0 198 161 324 398 310 44 -2 96 -9 115 -15z m-836 -622 c2 -13 9 -57 15 -98
34 -225 209 -409 447 -470 162 -42 366 -36 515 15 219 74 360 242 398 474 l16
101 378 0 377 0 0 -23 c0 -50 -22 -197 -41 -272 -75 -295 -306 -568 -614 -723
-91 -45 -222 -93 -307 -112 -32 -7 -58 -16 -58 -20 0 -4 26 -13 58 -20 219
-48 452 -173 614 -328 207 -198 316 -429 343 -724 l7 -78 -380 0 -380 0 -7 66
c-38 355 -329 573 -735 550 -205 -11 -355 -70 -471 -186 -93 -92 -169 -257
-169 -366 0 -68 27 -64 -388 -64 l-375 0 6 93 c18 264 148 536 345 718 82 76
235 178 335 224 90 40 242 92 297 101 51 8 51 20 0 28 -60 9 -216 64 -307 107
-190 91 -384 252 -486 406 -106 159 -172 350 -184 531 l-6 92 376 0 377 0 4
-22z"/>
</g>
</svg>
